<svg id="Capa_1" enable-background="new 0 0 512 512" height="512" viewBox="0 0 512 512" width="512" xmlns="http://www.w3.org/2000/svg"><g><g><path d="m120.04 99.112c0-8.394-6.829-15.223-15.222-15.223h-32.281c-8.394 0-15.223 6.829-15.223 15.223v32.282c0 8.394 6.83 15.223 15.223 15.223h32.282c8.394 0 15.222-6.829 15.222-15.223v-32.282zm-14.998 32.281c0 .124-.101.224-.224.224h-32.281c-.124 0-.225-.101-.225-.224v-32.281c0-.124.101-.224.225-.224h32.282c.123 0 .224.101.224.224v32.281z"/><path d="m200.299 99.112c0-8.394-6.829-15.223-15.222-15.223h-32.282c-8.394 0-15.223 6.829-15.223 15.223v32.282c0 8.394 6.83 15.223 15.223 15.223h32.282c8.394 0 15.222-6.829 15.222-15.223zm-14.998 32.281c0 .124-.101.224-.224.224h-32.282c-.124 0-.225-.101-.225-.224v-32.281c0-.124.101-.224.225-.224h32.282c.123 0 .224.101.224.224z"/><path d="m120.04 182.06c0-8.394-6.829-15.223-15.222-15.223h-32.281c-8.394 0-15.223 6.829-15.223 15.223v32.282c0 8.394 6.83 15.223 15.223 15.223h32.282c8.394 0 15.222-6.829 15.222-15.223v-32.282zm-14.998 32.281c0 .124-.101.224-.224.224h-32.281c-.124 0-.225-.101-.225-.224v-32.281c0-.124.101-.224.225-.224h32.282c.123 0 .224.101.224.224v32.281z"/><path d="m200.299 182.06c0-8.394-6.829-15.223-15.222-15.223h-32.282c-8.394 0-15.223 6.829-15.223 15.223v32.282c0 8.394 6.83 15.223 15.223 15.223h32.282c8.394 0 15.222-6.829 15.222-15.223zm-14.998 32.281c0 .124-.101.224-.224.224h-32.282c-.124 0-.225-.101-.225-.224v-32.281c0-.124.101-.224.225-.224h32.282c.123 0 .224.101.224.224z"/><path d="m104.818 249.785h-32.281c-8.394 0-15.223 6.829-15.223 15.223v32.282c0 8.394 6.83 15.223 15.223 15.223h32.282c8.394 0 15.222-6.829 15.222-15.223v-32.282c-.001-8.394-6.829-15.223-15.223-15.223zm.224 47.505c0 .124-.101.224-.224.224h-32.281c-.124 0-.225-.101-.225-.224v-32.282c0-.124.101-.224.225-.224h32.282c.123 0 .224.101.224.224v32.282z"/><path d="m185.077 249.785h-32.282c-8.394 0-15.223 6.829-15.223 15.223v32.282c0 8.394 6.83 15.223 15.223 15.223h32.282c8.394 0 15.222-6.829 15.222-15.223v-32.282c0-8.394-6.828-15.223-15.222-15.223zm.224 47.505c0 .124-.101.224-.224.224h-32.282c-.124 0-.225-.101-.225-.224v-32.282c0-.124.101-.224.225-.224h32.282c.123 0 .224.101.224.224z"/><path d="m488.134 464.311h-11.13v-63.371c0-25.245-16.918-47.843-41.141-54.955l-45.42-13.334c-1.28-1.201-2.756-2.189-4.369-2.907l-9.43-4.202c-2.668-1.188-5.512-1.717-8.324-1.629v-21.145c14.925-10.878 25.322-27.679 27.575-47.043 7.393-1.827 12.891-8.517 12.891-16.466v-20.446-39.238c0-13.78-11.001-25.038-24.682-25.456-.739-13.385-11.862-24.049-25.429-24.049h-61.92c-5.705 0-11.18.992-16.274 2.797.047-.486.075-.977.075-1.475v-32.28c0-8.394-6.829-15.223-15.222-15.223h-32.282c-8.394 0-15.223 6.829-15.223 15.223v32.282c0 8.394 6.83 15.223 15.223 15.223h27.102c-5.051 5.715-8.793 12.61-10.738 20.221h-16.364c-8.394 0-15.223 6.829-15.223 15.223v32.282c0 8.394 6.83 15.223 15.223 15.223h14.848v9.694c0 3.974 1.374 7.633 3.671 10.527h-18.52c-8.394 0-15.223 6.829-15.223 15.223v32.282c0 8.394 6.83 15.222 15.223 15.222h32.282c8.394 0 15.222-6.829 15.222-15.222v-1.155c2.432 2.402 5.044 4.618 7.81 6.634v21.104c-2.788-.067-5.603.469-8.235 1.651l-9.249 4.153c-1.603.719-3.068 1.705-4.339 2.901l-45.692 13.411c-24.225 7.11-41.144 29.708-41.144 54.955v5.092c0 4.142 3.357 7.499 7.499 7.499s7.499-3.358 7.499-7.499v-5.092c0-18.635 12.488-35.316 30.37-40.564l37.414-10.981c.767 2.121 1.999 4.109 3.693 5.806l25.619 25.653c.025.025.05.05.075.074 3.172 3.088 7.28 4.65 11.402 4.649.962 0 1.924-.089 2.876-.26l5.319 9.136-12.381 69.852h-57.454v-16.293c0-4.142-3.357-7.499-7.499-7.499s-7.499 3.358-7.499 7.499v16.293h-31.932v-23.217c0-4.142-3.357-7.499-7.499-7.499s-7.499 3.358-7.499 7.499v23.217h-31.212v-87.513h.942c4.142 0 7.499-3.358 7.499-7.499 0-4.142-3.357-7.499-7.499-7.499h-90.29c-4.142 0-7.499 3.358-7.499 7.499 0 4.142 3.357 7.499 7.499 7.499h.942v87.513h-27.159v-392.708c0-6.246 5.082-11.327 11.327-11.327h249.353c6.246 0 11.326 5.081 11.326 11.327v30.41c0 4.142 3.357 7.499 7.499 7.499s7.499-3.358 7.499-7.499v-30.41c0-13.376-10.03-24.446-22.962-26.103v-27.051c.001-10.173-8.276-18.449-18.449-18.449h-219.18c-10.173 0-18.448 8.276-18.448 18.449v27.051c-12.933 1.657-22.963 12.727-22.963 26.103v393.455c-10.288 2.644-17.913 11.996-17.913 23.097 0 13.148 10.696 23.845 23.845 23.845h464.269c13.148 0 23.845-10.697 23.845-23.845s-10.697-23.844-23.846-23.844zm-428.789-449.312h219.18c1.903 0 3.451 1.548 3.451 3.45v26.828h-226.081v-26.828c0-1.903 1.548-3.45 3.45-3.45zm402.661 385.941v63.371h-31.956v-16.293c0-4.142-3.357-7.499-7.499-7.499s-7.499 3.358-7.499 7.499v16.293h-57.423l-12.401-69.929 5.392-9.663c1.004.191 2.02.295 3.037.295 4.092 0 8.181-1.543 11.372-4.609l25.63-24.958c1.762-1.715 3.039-3.771 3.822-5.978l37.159 10.909c17.878 5.248 30.366 21.928 30.366 40.562zm-138.358-15.378-4.722-8.111 10.056-8.4 8.939 7.644-4.948 8.866h-9.325zm46.892-46.32 9.432 4.203c.477.212.617.869.222 1.255l-25.593 24.923c-.504.481-1.281.504-1.81.053l-11.876-10.155 25.556-19.788c1.165-.903 2.725-1.09 4.069-.491zm-11.864-194.173c5.773 0 10.469 4.696 10.469 10.469 0 7.481 6.086 13.568 13.568 13.568h.605c5.773 0 10.469 4.696 10.469 10.469v31.738h-4.917c-2.759 0-5.004-2.244-5.004-5.003v-6.843c0-11.964-9.821-20.72-20.633-20.72-2.188 0-4.398.353-6.561 1.067-18.26 6.036-38.376 6.038-56.661-.004-13.407-4.43-27.191 5.533-27.191 19.654v6.846c0 2.759-2.245 5.003-5.004 5.003h-4.917v-32.389c0-18.667 15.187-33.855 33.856-33.855zm-125.847-13.676v-32.281c0-.124.101-.224.225-.224h32.282c.123 0 .224.101.224.224v32.282c0 .124-.101.224-.224.224h-32.282c-.124-.001-.225-.101-.225-.225zm0 82.948v-32.281c0-.124.101-.224.225-.224h14.848v32.73h-14.848c-.124-.001-.225-.101-.225-.225zm32.73 82.949c0 .124-.101.224-.224.224h-32.282c-.124 0-.225-.1-.225-.224v-32.282c0-.124.101-.224.225-.224h29.43c.812 3.152 1.84 6.215 3.075 9.169v23.337zm9.881-46.11c-.355-5.585-5.002-9.961-10.578-9.961-1.081 0-1.961-.88-1.961-1.961v-12.946h4.917c11.029 0 20.002-8.973 20.002-20.002v-6.846c0-3.846 3.748-6.647 7.511-5.404 21.298 7.036 44.755 7.034 66.049-.005 3.686-1.217 7.489 1.517 7.489 5.412v6.843c0 11.029 8.973 20.002 20.002 20.002h4.917v12.946c0 1.081-.88 1.961-1.961 1.961-5.577 0-10.223 4.375-10.578 9.964-1.755 27.832-24.993 49.634-52.905 49.634-27.911 0-51.149-21.802-52.904-49.637zm52.905 64.635c8.795 0 17.225-1.695 24.977-4.771v19.899l-24.365 18.867-25.591-19.122v-19.643c7.753 3.075 16.183 4.77 24.979 4.77zm-51.547 28.791c-.406-.406-.221-1.046.229-1.247l9.248-4.152c1.323-.592 2.864-.424 4.028.444l26.644 19.91-12.806 10.696c-.524.437-1.285.416-1.782-.047zm48.826 55.954h5.466l11.306 63.751h-28.071zm-250.534-23.762h58.407v87.513h-58.407zm413.044 120.203h-464.268c-4.878 0-8.846-3.968-8.846-8.846s3.968-8.845 8.846-8.845h464.269c4.878 0 8.846 3.968 8.846 8.845s-3.969 8.846-8.847 8.846z"/></g></g></svg>